<svg width="997" height="960" viewBox="0 0 997 960" fill="none" xmlns="http://www.w3.org/2000/svg">
    <g filter="url(#filter0_b_44_35)">
        <path d="M0 722.858C0 695.958 35.0396 685.603 49.6623 708.181L104.444 792.766C113.15 806.21 131.579 809.162 144.049 799.111L206.26 748.969L236.326 727.791C254.214 715.191 278.875 727.985 278.875 749.865V788.52C278.875 800.084 288.249 809.458 299.813 809.458C311.376 809.458 320.751 818.832 320.751 830.396V915C320.751 929.912 308.662 942 293.751 942H27C12.0883 942 0 929.912 0 915L0 722.858Z" fill="#D9D9D9" fill-opacity="0.8"/>
    </g>
    <g filter="url(#blurFilter)">
        <path d="M141.02 777.178C131.624 784.875 117.726 783.529 110.451 773.803C66.4901 715.023 36.1843 647.076 21.8702 574.909C6.12847 495.543 10.2134 413.522 33.763 336.112C57.3127 258.701 99.6003 188.29 156.88 131.115C214.16 73.94 284.663 31.7664 362.146 8.32968C439.628 -15.107 521.698 -19.0834 601.086 -3.24721C680.473 12.589 754.728 47.7489 817.272 99.1181C879.816 150.487 928.72 216.48 959.651 291.251C987.775 359.237 1000.25 432.572 996.28 505.847C995.622 517.978 984.798 526.808 972.708 525.61L807.836 509.272C795.744 508.074 787.003 497.293 787.258 485.145C788.073 446.215 780.825 407.454 765.879 371.324C748.123 328.402 720.05 290.519 684.147 261.03C648.244 231.542 605.618 211.359 560.046 202.268C514.473 193.177 467.361 195.46 422.883 208.914C378.404 222.367 337.931 246.577 305.05 279.398C272.169 312.219 247.894 352.639 234.375 397.076C220.857 441.514 218.512 488.597 227.548 534.157C235.154 572.505 250.626 608.777 272.901 640.721C279.853 650.691 278.556 664.514 269.153 672.216L141.02 777.178Z" fill="#D9D9D9" fill-opacity="0.8"/>
    </g>
    <defs>
        <filter id="filter0_b_44_35" x="-4" y="691.809" width="328.751" height="254.191" filterUnits="userSpaceOnUse" color-interpolation-filters="sRGB">
            <feFlood flood-opacity="0" result="BackgroundImageFix"/>
            <feGaussianBlur in="BackgroundImageFix" stdDeviation="2"/>
            <feComposite in2="SourceAlpha" operator="in" result="effect1_backgroundBlur_44_35"/>
            <feBlend mode="normal" in="SourceGraphic" in2="effect1_backgroundBlur_44_35" result="shape"/>
        </filter>

        <filter id="blurFilter" x="0" y="0" width="200%" height="200%">
            <feGaussianBlur in="SourceGraphic" stdDeviation="1" />
        </filter>
       
    </defs>
</svg>
